<svg xmlns="http://www.w3.org/2000/svg" width="19" height="20" viewBox="0 0 19 20">
    <path fill="#000000" fill-rule="nonzero" d="M4.136 19.985a4.099 4.099 0 0 1-2.917-1.209 4.13 4.13 0 0 1 0-5.835l9.257-9.257a2.805 2.805 0 0 1 3.962 0 2.805 2.805 0 0 1 0 3.962l-6.81 6.81a.693.693 0 1 1-.979-.98l6.81-6.81a1.417 1.417 0 0 0-1.002-2.417c-.378 0-.734.147-1 .415L2.198 13.92a2.743 2.743 0 0 0 0 3.876 2.722 2.722 0 0 0 1.937.802c.732 0 1.42-.285 1.938-.802l9.475-9.475a4.038 4.038 0 0 0 1.19-2.874 4.038 4.038 0 0 0-1.19-2.874 4.07 4.07 0 0 0-5.749 0L2.774 9.6a.693.693 0 1 1-.98-.98L8.82 1.594a5.457 5.457 0 0 1 7.707 0 5.415 5.415 0 0 1 1.597 3.854 5.415 5.415 0 0 1-1.597 3.854l-9.474 9.474a4.099 4.099 0 0 1-2.918 1.209z"/>
</svg>
