<svg xmlns="http://www.w3.org/2000/svg" width="20" height="20" viewBox="0 0 20 20">
    <path fill="#000000" fill-rule="nonzero" d="M19.016 18.217l-4.76-4.95a8.049 8.049 0 0 0 1.894-5.192C16.15 3.623 12.527 0 8.075 0 3.623 0 0 3.623 0 8.075c0 4.452 3.623 8.075 8.075 8.075a7.989 7.989 0 0 0 4.626-1.461l4.796 4.988c.2.208.47.323.76.323a1.055 1.055 0 0 0 .759-1.783zM8.075 2.107a5.975 5.975 0 0 1 5.968 5.968 5.975 5.975 0 0 1-5.968 5.968 5.975 5.975 0 0 1-5.968-5.968 5.975 5.975 0 0 1 5.968-5.968z"/>
</svg>
