<?xml version="1.0" encoding="UTF-8"?>
<svg width="20px" height="20px" viewBox="0 0 20 20" version="1.1" xmlns="http://www.w3.org/2000/svg" xmlns:xlink="http://www.w3.org/1999/xlink" xmlns:sketch="http://www.bohemiancoding.com/sketch/ns">
    <!-- Generator: Sketch 3.3.1 (12002) - http://www.bohemiancoding.com/sketch -->
    <title>Shape</title>
    <desc>Created with Sketch.</desc>
    <defs></defs>
    <g id="Page-1" stroke="none" stroke-width="1" fill="none" fill-rule="evenodd" sketch:type="MSPage">
        <path d="M16.5860045,9.00000453 L14.0500045,6.46400453 C13.6710323,6.07162565 13.6764522,5.44791976 14.062186,5.06218596 C14.4479198,4.67645216 15.0716256,4.67103232 15.4640045,5.05000453 L19.7070045,9.29300453 C20.0962862,9.68395938 20.0962862,10.3160497 19.7070045,10.7070045 L15.4640045,14.9500045 C15.0716256,15.3289767 14.4479198,15.3235569 14.062186,14.9378231 C13.6764522,14.5520893 13.6710323,13.9283834 14.0500045,13.5360045 L16.5860045,11.0000045 L7.00000453,11.0000045 C6.44771978,11.0000045 6.00000453,10.5522893 6.00000453,10.0000045 C6.00000453,9.44771978 6.44771978,9.00000453 7.00000453,9.00000453 L16.5860045,9.00000453 L16.5860045,9.00000453 Z M2.00000453,18.0000045 L9.00000453,18.0000045 C9.55228928,18.0000045 10.0000045,18.4477198 10.0000045,19.0000045 C10.0000045,19.5522893 9.55228928,20.0000045 9.00000453,20.0000045 L1.00000453,20.0000045 C0.734543606,20.0008045 0.47972462,19.8957046 0.292014546,19.7079945 C0.104304471,19.5202844 -0.000795454456,19.2654655 4.53370319e-06,19.0000045 L4.53370319e-06,1.00000453 C-0.000795454456,0.734543606 0.104304471,0.47972462 0.292014546,0.292014546 C0.47972462,0.104304471 0.734543606,-0.000795454456 1.00000453,4.53370319e-06 L9.00000453,4.53370319e-06 C9.55228928,4.53370319e-06 10.0000045,0.447719784 10.0000045,1.00000453 C10.0000045,1.55228928 9.55228928,2.00000453 9.00000453,2.00000453 L2.00000453,2.00000453 L2.00000453,18.0000045 L2.00000453,18.0000045 Z" id="Shape" fill="#000000" sketch:type="MSShapeGroup"></path>
    </g>
</svg>